<?xml version="1.0" encoding="utf-8"?>
<svg version="1.1" xmlns="http://www.w3.org/2000/svg" viewBox="0 0 256 256" xml:space="preserve">
<g transform="translate(1.4065934065934016 1.4065934065934016) scale(2.81 2.81)">
	<rect width="100%" height="100%" fill="#00008b"/>
	<path fill="#ffffff" d="M74.1,44.3c0.7-0.5,1.9-1.6,2.4-3.3c0.1-0.5,0.2-0.9,0.2-1.5c0-3.2-0.6-6.3-1.7-9.2c0,0,0-0.1,0-0.1
		c-1.4-3.7-3.6-6.9-6.4-9.6c0,0,0,0,0-0.1c0,0-0.1,0-0.1-0.1c-2.8-2.7-6.3-4.7-10.1-5.9c0,0,0,0,0,0c-2.5-0.8-5.1-1.2-7.8-1.2H48
		c1-4.2,3.4-8.1,7.3-11.7c0.3-0.3,0.4-0.7,0.3-1.1C55.4,0.3,55,0,54.6,0h-6.3c-0.2,0-0.4,0.1-0.6,0.2c-4,3.2-4.7,7.5-5,13.2h-3.3
		c-2.6,0-5.2,0.4-7.6,1.1c0,0,0,0,0,0c-3.8,1.2-7.3,3.2-10.2,5.9c0,0,0,0-0.1,0c0,0,0,0,0,0.1c-2.8,2.6-5,5.9-6.5,9.6c0,0,0,0,0,0.1
		c-1.1,2.9-1.8,6.1-1.8,9.4c0,1.5,0.5,2.8,1.4,3.8c0,0,0,0,0,0c0,0,0,0,0,0c0.4,0.5,0.9,0.9,1.5,1.2c9.6,1.1,20.5,1.8,32.5,1.6
		C58,45.9,66.1,45.7,74.1,44.3z"/>
	<path fill="#ffffff" d="M46.2,49.5c-5.5,0-11.9-0.4-14.6-0.5c-6-0.3-11.1-0.6-14.8-0.9c0.9,27,11.8,34.2,27.9,41.8C44.9,90,45,90,45.2,90
		c0.1,0,0.3,0,0.4-0.1c14.2-6.7,20.2-14.3,20.2-14.3c8.5-11.4,8-24.1,7.8-27.8C62,49.3,52.2,49.4,46.2,49.5z"/>
</g>
</svg>
